<mxfile host="app.diagrams.net" modified="2024-06-26T12:49:32.796Z" agent="Mozilla/5.0 (Windows NT 10.0; Win64; x64) AppleWebKit/537.36 (KHTML, like Gecko) Chrome/126.0.0.0 Safari/537.36" version="24.6.2" etag="xVz8_Mbu_woCedTQT8fI" type="github">
  <diagram name="Halaman-1" id="N6uowdzsXTi-SzYKHIrt">
    <mxGraphModel>
      <root>
        <mxCell id="0" />
        <mxCell id="1" parent="0" />
      </root>
    </mxGraphModel>
  </diagram>
</mxfile>
